<svg width="70" height="70" viewBox="0 0 70 70" fill="none" xmlns="http://www.w3.org/2000/svg">
<circle cx="35" cy="35" r="35" fill="#F1F1F1"/>
<path d="M56.6528 33.2951L47.0278 28.8645V16.1701C47.0234 15.9038 46.9425 15.6443 46.7947 15.4227C46.647 15.2011 46.4386 15.0266 46.1944 14.9201L35.7778 10.1284C35.595 10.0438 35.3959 10 35.1944 10C34.993 10 34.7939 10.0438 34.6111 10.1284L24.1944 14.9201C23.9534 15.0317 23.7493 15.21 23.6066 15.4341C23.4638 15.6581 23.3882 15.9183 23.3889 16.184V28.8784L13.8056 33.2951C13.5645 33.4067 13.3604 33.585 13.2177 33.8091C13.0749 34.0331 12.9993 34.2933 13 34.559V48.1423C12.9993 48.408 13.0749 48.6682 13.2177 48.8923C13.3604 49.1163 13.5645 49.2946 13.8056 49.4062L24.2222 54.1979C24.4051 54.2825 24.6041 54.3263 24.8056 54.3263C25.007 54.3263 25.2061 54.2825 25.3889 54.1979L35.2222 49.6701L45.0556 54.1979C45.2384 54.2825 45.4374 54.3263 45.6389 54.3263C45.8403 54.3263 46.0394 54.2825 46.2222 54.1979L56.6389 49.4062C56.88 49.2946 57.084 49.1163 57.2268 48.8923C57.3696 48.6682 57.4451 48.408 57.4444 48.1423V34.559C57.4463 34.2948 57.3729 34.0356 57.2326 33.8118C57.0924 33.5879 56.8913 33.4087 56.6528 33.2951ZM45.6528 37.7951L38.5556 34.559L45.6528 31.2951L52.75 34.559L45.6528 37.7951ZM44.2639 28.8507L35.3194 33.0173V22.3368C35.4869 22.3294 35.6516 22.2917 35.8056 22.2257L44.25 18.3507V28.8784L44.2639 28.8507ZM35.2222 12.9062L42.3194 16.1701L35.2222 19.434L28.1389 16.1701L35.2222 12.9062ZM24.8056 31.2812L31.9028 34.5451L24.8056 37.7951L17.7083 34.559L24.8056 31.2812ZM33.8333 47.2396L24.8056 51.4062V40.7257C24.9994 40.7141 25.1886 40.6621 25.3611 40.5729L33.8056 36.684L33.8333 47.2396ZM54.6667 47.2396L45.6944 51.4062V40.7257C45.8693 40.7068 46.039 40.655 46.1944 40.5729L54.6389 36.684L54.6667 47.2396Z" fill="#969696"/>
</svg>
