<svg width="70" height="67" viewBox="0 0 70 67" fill="none" xmlns="http://www.w3.org/2000/svg">
<path d="M34.4163 30.4292C27.7955 28.7821 25.6663 27.0792 25.6663 24.4271C25.6663 21.3842 28.6122 19.2625 33.5413 19.2625C37.683 19.2625 39.7538 20.77 40.5122 23.1708C40.8622 24.2875 41.8247 25.125 43.0497 25.125H43.9247C45.8497 25.125 47.2205 23.3104 46.5497 21.5796C45.3247 18.2854 42.4663 15.5496 37.9163 14.4888V12.5625C37.9163 10.2454 35.9622 8.375 33.5413 8.375C31.1205 8.375 29.1663 10.2454 29.1663 12.5625V14.405C23.508 15.5775 18.958 19.095 18.958 24.4829C18.958 30.9317 24.5288 34.1421 32.6663 36.0125C39.958 37.6875 41.4163 40.1442 41.4163 42.7404C41.4163 44.6667 39.9872 47.7375 33.5413 47.7375C28.7288 47.7375 26.2497 46.0904 25.2872 43.7454C24.8497 42.6567 23.858 41.875 22.6622 41.875H21.8455C19.8913 41.875 18.5205 43.7733 19.2497 45.5042C20.9122 49.3846 24.7913 51.6738 29.1663 52.5671V54.4375C29.1663 56.7546 31.1205 58.625 33.5413 58.625C35.9622 58.625 37.9163 56.7546 37.9163 54.4375V52.6229C43.6038 51.59 48.1247 48.4354 48.1247 42.7125C48.1247 34.7842 41.0372 32.0763 34.4163 30.4292Z" fill="#FD8F70"/>
</svg>
