<svg width="40" height="40" viewBox="0 0 40 40" fill="none" xmlns="http://www.w3.org/2000/svg">
<path d="M31.6668 15C31.6668 13.468 31.3651 11.9509 30.7788 10.5354C30.1925 9.11994 29.3331 7.83381 28.2497 6.75046C27.1664 5.66711 25.8803 4.80775 24.4648 4.22145C23.0493 3.63514 21.5323 3.33337 20.0002 3.33337C18.4681 3.33337 16.951 3.63514 15.5355 4.22145C14.1201 4.80775 12.8339 5.66711 11.7506 6.75046C10.6672 7.83381 9.80787 9.11994 9.22157 10.5354C8.63526 11.9509 8.3335 13.468 8.3335 15C8.3335 17.3117 9.01683 19.4617 10.1752 21.275H10.1618C14.0952 27.4334 20.0002 36.6667 20.0002 36.6667L29.8385 21.275H29.8268C31.0275 19.4023 31.6661 17.2246 31.6668 15ZM20.0002 20C18.6741 20 17.4023 19.4733 16.4646 18.5356C15.5269 17.5979 15.0002 16.3261 15.0002 15C15.0002 13.674 15.5269 12.4022 16.4646 11.4645C17.4023 10.5268 18.6741 10 20.0002 10C21.3262 10 22.598 10.5268 23.5357 11.4645C24.4734 12.4022 25.0002 13.674 25.0002 15C25.0002 16.3261 24.4734 17.5979 23.5357 18.5356C22.598 19.4733 21.3262 20 20.0002 20Z" fill="#393939"/>
</svg>
