<svg id="search1" xmlns="http://www.w3.org/2000/svg" width="20.654" height="20.532" viewBox="0 0 20.654 20.532">
  <g id="Group_19" data-name="Group 19" transform="translate(0 0)">
    <path id="Path_13" data-name="Path 13" d="M2.6,2.582a8.905,8.905,0,0,1,12.541,0,8.777,8.777,0,0,1,.414,12.026l4.925,4.9a.6.6,0,0,1,0,.852.608.608,0,0,1-.857,0L14.7,15.46a8.906,8.906,0,0,1-12.1-.411,8.778,8.778,0,0,1,0-12.466ZM3.455,14.2a7.7,7.7,0,0,0,10.828,0A7.634,7.634,0,0,0,3.455,3.433,7.588,7.588,0,0,0,3.455,14.2Z" transform="translate(-0.001 0)" fill="#8a8a8a"/>
  </g>
</svg>
