<svg width="22" height="22" viewBox="0 0 22 22" fill="none" xmlns="http://www.w3.org/2000/svg">
<path d="M10.924 1.17109e-05C8.76158 0.00238453 6.6484 0.645786 4.85156 1.84889C3.05473 3.052 1.6549 4.76079 0.829018 6.75929C0.00313801 8.75779 -0.21172 10.9563 0.211602 13.0769C0.634924 15.1975 1.67742 17.1449 3.20733 18.6732C4.73723 20.2014 6.68586 21.2418 8.80691 21.6627C10.928 22.0837 13.1262 21.8665 15.1238 21.0384C17.1214 20.2103 18.8287 18.8086 20.0298 17.0105C21.2309 15.2123 21.872 13.0984 21.872 10.936C21.8725 9.49872 21.5896 8.07543 21.0395 6.74759C20.4893 5.41975 19.6827 4.21343 18.6659 3.19767C17.649 2.18191 16.4418 1.37664 15.1133 0.827945C13.7849 0.279253 12.3613 -0.002092 10.924 1.17109e-05ZM10.935 19.686C9.20462 19.686 7.51309 19.1729 6.07432 18.2115C4.63556 17.2502 3.51417 15.8838 2.85198 14.2851C2.18979 12.6864 2.01653 10.9273 2.35411 9.23017C2.6917 7.53303 3.52496 5.9741 4.74853 4.75053C5.9721 3.52696 7.53102 2.6937 9.22816 2.35612C10.9253 2.01854 12.6844 2.1918 14.2831 2.85399C15.8818 3.51618 17.2482 4.63756 18.2095 6.07633C19.1709 7.51509 19.684 9.20662 19.684 10.937C19.684 13.2574 18.7622 15.4827 17.1215 17.1235C15.4807 18.7642 13.2554 19.686 10.935 19.686Z" fill="#D3D3D3"/>
<path d="M11.4818 5.46899H9.8418V12.031L15.5838 15.475L16.4038 14.129L11.4828 11.211L11.4818 5.46899Z" fill="#D3D3D3"/>
</svg>
