<svg xmlns="http://www.w3.org/2000/svg" xmlns:xlink="http://www.w3.org/1999/xlink" width="110" height="119" viewBox="0 0 110 119">
  <defs>
    <clipPath id="clip-path">
      <rect id="Rectangle_37" data-name="Rectangle 37" width="110" height="119" fill="#fff"/>
    </clipPath>
    <filter id="Path_14" x="-9" y="-6" width="128" height="128" filterUnits="userSpaceOnUse">
      <feOffset dy="3" input="SourceAlpha"/>
      <feGaussianBlur stdDeviation="3" result="blur"/>
      <feFlood flood-opacity="0.161"/>
      <feComposite operator="in" in2="blur"/>
      <feComposite in="SourceGraphic"/>
    </filter>
  </defs>
  <g id="virus3" clip-path="url(#clip-path)">
    <g transform="matrix(1, 0, 0, 1, 0, 0)" filter="url(#Path_14)">
      <path id="Path_14-2" data-name="Path 14" d="M59.124,32.373V3.438a3.915,3.915,0,0,0-.806-2.431A2.506,2.506,0,0,0,56.374,0h-2.75A2.506,2.506,0,0,0,51.68,1.007a3.915,3.915,0,0,0-.806,2.431V32.373a6.645,6.645,0,0,1,8.25,0ZM33.607,95.489a12.228,12.228,0,0,1,0-14.584l1.475-1.843H33a7.518,7.518,0,0,1-5.834-3.021,12.211,12.211,0,0,1,0-14.584A7.518,7.518,0,0,1,33,58.438h2.083L33.607,56.6a11.629,11.629,0,0,1-2.431-6.784,12.09,12.09,0,0,1,1.85-7.065,8.052,8.052,0,0,1,5.17-3.674A6.977,6.977,0,0,1,44,40.7V34.751c0-7.814-5.393-14.126-12.031-14.126-7.562,0-9.969,6.123-13.771,13.563A200.628,200.628,0,0,0,.666,83.817,30.067,30.067,0,0,0,0,90.181c0,13.159,10.742,22.668,21.527,19.041l10.227-3.409a17.216,17.216,0,0,0,9.023-7.466,6.467,6.467,0,0,1-3.87-.308,7.956,7.956,0,0,1-3.3-2.55ZM72.5,90.628a4.071,4.071,0,0,0,0-4.86l-1.475-1.843c-3.465-4.331-1.011-11.737,3.89-11.737H77a2.506,2.506,0,0,0,1.944-1.007,4.07,4.07,0,0,0,0-4.861A2.506,2.506,0,0,0,77,65.313H74.916c-4.9,0-7.355-7.406-3.89-11.735L72.5,51.734a4.071,4.071,0,0,0,0-4.862,2.381,2.381,0,0,0-3.89,0l-1.473,1.843c-3.465,4.331-9.389,1.263-9.389-4.862v-2.6a3.915,3.915,0,0,0-.806-2.431,2.381,2.381,0,0,0-3.889,0,3.915,3.915,0,0,0-.806,2.431v2.6c0,6.125-5.924,9.193-9.389,4.862l-1.473-1.843a2.381,2.381,0,0,0-3.889,0,4.071,4.071,0,0,0,0,4.862l1.475,1.843c3.465,4.329,1.011,11.735-3.89,11.735H33a2.506,2.506,0,0,0-1.944,1.007,4.07,4.07,0,0,0,0,4.861A2.506,2.506,0,0,0,33,72.188h2.083c4.9,0,7.355,7.406,3.89,11.737L37.5,85.768a3.566,3.566,0,0,0-.613,1.116,4.237,4.237,0,0,0-.015,2.654,3.6,3.6,0,0,0,.6,1.127,2.8,2.8,0,0,0,.9.75,2.248,2.248,0,0,0,2.123-.02,2.823,2.823,0,0,0,.893-.767l1.473-1.841c3.465-4.331,9.389-1.263,9.389,4.86v2.6a3.915,3.915,0,0,0,.806,2.431,2.381,2.381,0,0,0,3.889,0,3.915,3.915,0,0,0,.806-2.431v-2.6c0-6.123,5.924-9.191,9.389-4.86l1.473,1.841a2.8,2.8,0,0,0,.892.745,2.248,2.248,0,0,0,2.105,0,2.8,2.8,0,0,0,.89-.745Zm-23-25.315a2.379,2.379,0,0,1-1.528-.579,3.386,3.386,0,0,1-1.013-1.543A4.242,4.242,0,0,1,46.8,61.2a3.77,3.77,0,0,1,.753-1.76,2.635,2.635,0,0,1,1.408-.941,2.243,2.243,0,0,1,1.589.2,2.986,2.986,0,0,1,1.234,1.266,4.073,4.073,0,0,1,.464,1.91,3.915,3.915,0,0,1-.806,2.431A2.506,2.506,0,0,1,49.5,65.313Zm11,13.75a2.379,2.379,0,0,1-1.528-.579,3.386,3.386,0,0,1-1.013-1.543,4.243,4.243,0,0,1-.157-1.986,3.77,3.77,0,0,1,.753-1.76,2.636,2.636,0,0,1,1.408-.941,2.244,2.244,0,0,1,1.589.2,2.986,2.986,0,0,1,1.234,1.266,4.073,4.073,0,0,1,.464,1.91,3.915,3.915,0,0,1-.806,2.431,2.506,2.506,0,0,1-1.944,1Zm48.833,4.755A200.649,200.649,0,0,0,91.8,34.188c-3.8-7.44-6.208-13.563-13.77-13.563C71.392,20.625,66,26.937,66,34.751v5.955a6.977,6.977,0,0,1,5.8-1.625,8.052,8.052,0,0,1,5.17,3.674,12.09,12.09,0,0,1,1.85,7.065,11.629,11.629,0,0,1-2.43,6.78l-1.475,1.833H77a7.518,7.518,0,0,1,5.834,3.021,12.211,12.211,0,0,1,0,14.584A7.518,7.518,0,0,1,77,79.063H74.916l1.475,1.843A11.275,11.275,0,0,1,78.773,86.6a12.532,12.532,0,0,1-.8,6.347,9.44,9.44,0,0,1-3.664,4.506,6.754,6.754,0,0,1-5.09.894,17.216,17.216,0,0,0,9.023,7.466l10.227,3.409C99.257,112.849,110,103.34,110,90.181a30.128,30.128,0,0,0-.668-6.364Z" fill="#ff8e6e"/>
    </g>
  </g>
</svg>
