<svg xmlns="http://www.w3.org/2000/svg" width="100.84" height="103.123" viewBox="0 0 100.84 103.123">
  <g id="virus1" transform="translate(-16.577 -2.292)">
    <path id="Path_4" data-name="Path 4" d="M102.842,64.167a8.024,8.024,0,1,0,0-9.167H99.084a31.444,31.444,0,0,0-6.417-19.2l6.142-6.142a8.162,8.162,0,0,0,7.149-2.154,8.277,8.277,0,0,0,0-11.458,8.277,8.277,0,0,0-11.458,0,8.164,8.164,0,0,0-2.154,7.15L86.2,29.333a31.692,31.692,0,0,0-14.621-6.05V16.867a8.024,8.024,0,1,0-9.167,0v6.417a31.819,31.819,0,0,0-11.458,3.942l-5.088-7.288a7.938,7.938,0,0,0-.917-7.333,8.016,8.016,0,1,0-6.6,12.6l5.408,7.7a28.547,28.547,0,0,0-4.858,6.6,8.067,8.067,0,0,0-8.571,1.742,8.277,8.277,0,0,0,0,11.458A9.263,9.263,0,0,0,34.917,55a33.179,33.179,0,0,0,.825,7.15l-6,1.6a8.016,8.016,0,1,0-3.025,13.888A7.965,7.965,0,0,0,32.121,72.6l6.921-1.879a34.659,34.659,0,0,0,8.021,9.487l-5.042,9.167a8.233,8.233,0,0,0-6.142,4.217A8.018,8.018,0,1,0,50,101.2a7.932,7.932,0,0,0,.092-7.379l4.9-9.029A32.553,32.553,0,0,0,67,87.083h.825A8.956,8.956,0,0,0,67,91.117a8.043,8.043,0,1,0,13.063-6.829A33.243,33.243,0,0,0,86.2,80.667L96.929,91.392a8.164,8.164,0,0,0,2.154,7.15,8.277,8.277,0,0,0,11.458,0,8.029,8.029,0,0,0-7.15-13.613L92.667,74.2a31.918,31.918,0,0,0,5.088-10.037ZM60.125,55A6.875,6.875,0,1,1,67,48.125,6.866,6.866,0,0,1,60.125,55ZM76.167,68.75a4.583,4.583,0,1,1,4.583-4.583A4.6,4.6,0,0,1,76.167,68.75Z" fill="#ff8e6e"/>
  </g>
</svg>
