<svg xmlns="http://www.w3.org/2000/svg" xmlns:xlink="http://www.w3.org/1999/xlink" width="29" height="23" viewBox="0 0 29 23">
  <defs>
    <clipPath id="clip-path">
      <rect id="Rectangle_38" data-name="Rectangle 38" width="29" height="23" transform="translate(-2 -2)" fill="#ff8e6e"/>
    </clipPath>
    <filter id="Path_15" x="-7" y="-3.995" width="42.994" height="33.996" filterUnits="userSpaceOnUse">
      <feOffset dy="3" input="SourceAlpha"/>
      <feGaussianBlur stdDeviation="3" result="blur"/>
      <feFlood flood-opacity="0.161"/>
      <feComposite operator="in" in2="blur"/>
      <feComposite in="SourceGraphic"/>
    </filter>
  </defs>
  <g id="virus4" transform="translate(2 2)" clip-path="url(#clip-path)">
    <g transform="matrix(1, 0, 0, 1, -2, -2)" filter="url(#Path_15)">
      <path id="Path_15-2" data-name="Path 15" d="M24.375,11H23.9c-1.114,0-1.671-1.077-.884-1.707l.335-.268a.508.508,0,0,0,.135-.162.408.408,0,0,0,0-.383.508.508,0,0,0-.135-.162.652.652,0,0,0-.2-.108.771.771,0,0,0-.478,0,.653.653,0,0,0-.2.108l-.335.268C21.347,9.216,20,8.77,20,7.879V7.5a.455.455,0,0,0-.183-.354.74.74,0,0,0-.884,0,.455.455,0,0,0-.183.354v.379c0,.891-1.347,1.337-2.134.707l-.335-.268a.74.74,0,0,0-.884,0,.433.433,0,0,0,0,.707l.335.268c.787.63.23,1.707-.884,1.707h-.473a.712.712,0,0,0-.442.146.433.433,0,0,0,0,.707.712.712,0,0,0,.442.146h.473c1.114,0,1.671,1.077.884,1.707l-.335.268a.508.508,0,0,0-.135.162.409.409,0,0,0,0,.383.508.508,0,0,0,.135.162.652.652,0,0,0,.2.108.77.77,0,0,0,.478,0,.653.653,0,0,0,.2-.108l.335-.268c.788-.63,2.134-.184,2.134.707v.38a.456.456,0,0,0,.183.354.74.74,0,0,0,.884,0A.456.456,0,0,0,20,15.5v-.379c0-.891,1.347-1.337,2.134-.707l.335.268a.653.653,0,0,0,.2.108.77.77,0,0,0,.478,0,.652.652,0,0,0,.2-.108.508.508,0,0,0,.135-.162.409.409,0,0,0,0-.383.508.508,0,0,0-.135-.162l-.335-.268c-.787-.63-.23-1.707.884-1.707h.473a.712.712,0,0,0,.442-.146.433.433,0,0,0,0-.707A.712.712,0,0,0,24.375,11ZM18.75,12a1.481,1.481,0,0,1-.694-.168,1.087,1.087,0,0,1-.46-.449.816.816,0,0,1-.071-.578.959.959,0,0,1,.342-.512,1.371,1.371,0,0,1,.64-.274,1.543,1.543,0,0,1,.722.057,1.231,1.231,0,0,1,.561.368A.865.865,0,0,1,20,11a.911.911,0,0,1-.366.707A1.424,1.424,0,0,1,18.75,12ZM13.535,6.667h.631a.949.949,0,0,0,.589-.2.577.577,0,0,0,0-.943.949.949,0,0,0-.589-.2h-.631c-1.484,0-2.228-1.437-1.178-2.276L12.8,2.7a.606.606,0,0,0,.242-.471.608.608,0,0,0-.244-.47.987.987,0,0,0-1.176,0l-.446.357c-1.05.84-2.845.245-2.845-.943v-.5A.607.607,0,0,0,8.089.2.987.987,0,0,0,6.911.2a.607.607,0,0,0-.244.471v.5c0,1.187-1.8,1.783-2.845.943l-.446-.357a.987.987,0,0,0-1.176,0,.608.608,0,0,0-.244.47A.607.607,0,0,0,2.2,2.7l.446.357c1.05.84.307,2.276-1.179,2.276H.833a.949.949,0,0,0-.589.2.577.577,0,0,0,0,.943.949.949,0,0,0,.589.2h.631c1.484,0,2.229,1.438,1.179,2.276L2.2,9.3a.577.577,0,0,0,0,.943.987.987,0,0,0,1.179,0l.446-.357c1.05-.84,2.845-.245,2.845.943v.505a.607.607,0,0,0,.244.471.987.987,0,0,0,1.178,0,.607.607,0,0,0,.244-.471v-.5c0-1.187,1.8-1.783,2.845-.943l.446.357a.987.987,0,0,0,1.179,0,.577.577,0,0,0,0-.943l-.446-.357C11.307,8.1,12.05,6.667,13.535,6.667ZM6.25,6a1.481,1.481,0,0,1-.694-.169,1.086,1.086,0,0,1-.46-.449A.816.816,0,0,1,5.024,4.8a.959.959,0,0,1,.342-.512,1.371,1.371,0,0,1,.64-.274,1.542,1.542,0,0,1,.722.057,1.231,1.231,0,0,1,.561.368A.865.865,0,0,1,7.5,5a.911.911,0,0,1-.366.707A1.424,1.424,0,0,1,6.25,6ZM9.375,7a.741.741,0,0,1-.347-.084.543.543,0,0,1-.23-.224A.408.408,0,0,1,8.762,6.4a.479.479,0,0,1,.171-.256.685.685,0,0,1,.32-.137.771.771,0,0,1,.361.028.616.616,0,0,1,.28.184A.433.433,0,0,1,10,6.5a.456.456,0,0,1-.183.354A.712.712,0,0,1,9.375,7Z" transform="translate(2 2)" fill="#ff8e6e"/>
    </g>
  </g>
</svg>
