<svg xmlns="http://www.w3.org/2000/svg" viewBox="0 0 588.25 574.21"><defs><style>.cls-1,.cls-12{fill:#834644;}.cls-2{fill:#ffe4db;}.cls-3{fill:#fff;}.cls-4{fill:#ff698f;}.cls-5,.cls-6,.cls-7,.cls-8{fill:none;}.cls-11,.cls-12,.cls-13,.cls-5,.cls-6,.cls-7,.cls-8{stroke:#000;}.cls-11,.cls-5,.cls-8{stroke-linecap:round;}.cls-11,.cls-13,.cls-5,.cls-7,.cls-8{stroke-linejoin:round;}.cls-5{stroke-width:5px;}.cls-12,.cls-6{stroke-miterlimit:10;}.cls-12,.cls-6,.cls-7,.cls-8{stroke-width:4px;}.cls-9{fill:#853544;}.cls-10,.cls-11{fill:#ccc;}.cls-11{stroke-width:2px;}.cls-13{stroke-width:7px;}</style></defs><g id="Layer_2" data-name="Layer 2"><path class="cls-1" d="M357.76,215.35l2.46-5.72a46.4,46.4,0,0,0-1.11,6.93L341.35,213a44.32,44.32,0,0,0-12.51-11.89,34.17,34.17,0,0,1,12.51,10.71Z" transform="translate(-113.07 -43.38)"/><path class="cls-2" d="M478.29,385.15l8.1,15-22.7,51.48-3.16,1.16v-8.38a6.59,6.59,0,0,0-6.59-6.59H391c-18.39-23.07-36.21-41.87-39.58-45.38.63-2.42,1.37-5,2.25-7.65,11.3-34.58-4.94-99.17-4.94-99.17l.73-2.35a102.94,102.94,0,0,0,16.92,25.23c14,14.94,36.53,23.51,57.17,23.35,16.81-.13,35.71-6.41,54.63-31.12a17.53,17.53,0,0,1-.8,4.48C468.23,335,478.29,385.15,478.29,385.15Z" transform="translate(-113.07 -43.38)"/><path class="cls-3" d="M391,437.82h-33.5l-4.89-6.44s-8.7-10.21-1.19-38.94C354.82,396,372.64,414.75,391,437.82Z" transform="translate(-113.07 -43.38)"/><path class="cls-3" d="M478.29,385.15l26.12,27.53S502.79,425,501,437.92l-37.26,13.71,22.7-51.48Z" transform="translate(-113.07 -43.38)"/><path class="cls-2" d="M376.74,194.53h31.78a8.94,8.94,0,0,0,0-17.88H388a76.41,76.41,0,0,1,21.83-7.13l38.86-.69,4.11-.86A265.6,265.6,0,0,0,497,159.38a16.9,16.9,0,0,1,3.48,4.13l9.1,22.64.12.4v23.19c3.88-7.06,34.94-25.77,36.36,8.11s-47.3,46.59-47.3,46.59l-2.66,1.48-12.52,7-30.34,10.87a132.55,132.55,0,0,0-16-1,17.62,17.62,0,0,0,6.44-13.63v-6.71H408.41v6.71a17.57,17.57,0,0,0,7.64,14.52l-2.35.21c-1.06,0-61.76-8.47-61.76-8.47l-.19.61c-1.92-.26-3.85-.45-5.76-.54-.72,0-1.45-.06-2.17-.07-30-.35-50.12-23.64-49.76-43.41s10.58-31.76,24.35-32.82a20.86,20.86,0,0,1,10.42,2h0A44.32,44.32,0,0,1,341.35,213l17.76,3.53a46.4,46.4,0,0,1,1.11-6.93l6.14-14.27s0,0,0,0a46,46,0,0,1,3.24-4.36,9,9,0,0,0,7.13,3.56Zm107.57-8.94a9,9,0,0,0-8.94-8.94H443.59a8.94,8.94,0,0,0,0,17.88h31.78A9,9,0,0,0,484.31,185.59Zm-11.49,31.53c0-8.38-3.32-15.18-7.41-15.18s-7.41,6.8-7.41,15.18,3.31,15.17,7.41,15.17S472.82,225.5,472.82,217.12Zm-81,0c0-8.38-3.32-15.18-7.41-15.18s-7.41,6.8-7.41,15.18,3.31,15.17,7.41,15.17S391.82,225.5,391.82,217.12Z" transform="translate(-113.07 -43.38)"/><path d="M465.41,201.94c4.09,0,7.41,6.8,7.41,15.18s-3.32,15.17-7.41,15.17S458,225.5,458,217.12,461.31,201.94,465.41,201.94Z" transform="translate(-113.07 -43.38)"/><path d="M416.06,283.64c3.88-.35,12-1,21.19-.89a17.6,17.6,0,0,1-21.19.89Z" transform="translate(-113.07 -43.38)"/><path class="cls-3" d="M463.69,451.63,501,437.92c-2,14.13-4.27,29.08-5,29.82-1.41,1.41-30,26.82-30,26.82h-5.41V458.8Z" transform="translate(-113.07 -43.38)"/><path class="cls-3" d="M433.85,569.61a12.62,12.62,0,0,1,1,5.64h0a7.47,7.47,0,0,1-.08.8c-.5,3.38-6,2.51-5.89-.8a9.54,9.54,0,0,0-.1-1.88,2.62,2.62,0,0,1-2-.91A170.72,170.72,0,0,1,413,555.76c-2.64-3.81-4.86-7.86-7.53-11.59h-.1a3.12,3.12,0,0,1-1.6-.18l-2.14-2.8a2.55,2.55,0,0,1,.21-1.45c-.38-.4-.76-.81-1.17-1.2a3.16,3.16,0,0,1,.51-4.73H419l15.72,16.33c-.73,2.33-1.39,4.68-2,7.07,0,.27,0,.54,0,.81a2.51,2.51,0,0,1,.58,1.74c-.09,1.85-.23,3.68-.39,5.52A19.71,19.71,0,0,0,433.85,569.61Z" transform="translate(-113.07 -43.38)"/><path class="cls-3" d="M435.58,542a2.55,2.55,0,0,1,.88,3c-.3.84-.6,1.68-.88,2.53Z" transform="translate(-113.07 -43.38)"/><path class="cls-4" d="M325,509.18v18.06a6.62,6.62,0,0,0,6.58,6.58h64.35l5.65,7.38a3.43,3.43,0,0,0,2.14,2.8,3.12,3.12,0,0,0,1.6.18h.1c2.67,3.73,4.89,7.78,7.53,11.59a170.72,170.72,0,0,0,13.79,16.7,2.62,2.62,0,0,0,2,.91,9.54,9.54,0,0,1,.1,1.88c-.16,3.31,5.39,4.18,5.89.8a7.47,7.47,0,0,0,.08-.8h0a12.62,12.62,0,0,0-1-5.64,19.71,19.71,0,0,1-.88-4.32c.16-1.84.3-3.67.39-5.52a2.51,2.51,0,0,0-.58-1.74c0-.27,0-.54,0-.81.6-2.39,1.26-4.74,2-7.07l.85.88V614.5h-320C114.64,496.91,173,455.38,173,455.38l125.41-46.82,8,8.36,19.06,24.91a6.71,6.71,0,0,0-.52,2.58v64.77Z" transform="translate(-113.07 -43.38)"/><path class="cls-1" d="M481.68,179.28a8.92,8.92,0,0,1-6.31,15.25H443.59a8.94,8.94,0,0,1,0-17.88h31.78A8.91,8.91,0,0,1,481.68,179.28Z" transform="translate(-113.07 -43.38)"/><path class="cls-3" d="M352.64,431.38l4.89,6.44H331.58a6.44,6.44,0,0,0-3.81,1.23l-21.31-22.13-6.4-8.36,34.58-23.77c11.3-9.64,19.06,0,19.06,0l-2.82,7.06.57.59C343.94,421.17,352.64,431.38,352.64,431.38Z" transform="translate(-113.07 -43.38)"/><path class="cls-1" d="M509.7,186.44v.11l-.12-.4Z" transform="translate(-113.07 -43.38)"/><path class="cls-3" d="M435.58,542v5.52c-.29.87-.58,1.73-.85,2.61L419,533.82h4.32a3,3,0,0,1,.79,2.82c.46-.1.91-.21,1.38-.29a3,3,0,0,1,2.38,5.43l0,.21a2.93,2.93,0,0,1,1,.14,3.16,3.16,0,0,1,2.41.16A3.13,3.13,0,0,1,435.58,542Z" transform="translate(-113.07 -43.38)"/><path class="cls-1" d="M374.35,181.65l-5.12,8.78a8.93,8.93,0,0,1,7.51-13.78h9.45Z" transform="translate(-113.07 -43.38)"/><path class="cls-3" d="M501,437.92l31.83-11.71a28.82,28.82,0,0,1-2.84,5.64L439.11,614.5h-3.53v-67c.28-.85.58-1.69.88-2.53a2.55,2.55,0,0,0-.88-3v-8.2h18.36a6.59,6.59,0,0,0,6.59-6.58V494.56h5.41s28.59-25.41,30-26.82C496.68,467,499,452.05,501,437.92Z" transform="translate(-113.07 -43.38)"/><path class="cls-1" d="M452.75,168a146.72,146.72,0,0,1-24.22.59,80,80,0,0,0-18.75,1l-7,.13-16.57,7h-9.45a8.93,8.93,0,0,0-7.51,13.78l-2.86,4.9s0,0,0,0a44.84,44.84,0,0,0-6.14,14.27l-2.46,5.72-16.41-3.5a34.17,34.17,0,0,0-12.51-10.71h0a28.93,28.93,0,0,0-8.77-3.63s-9.89-15.29-2.12-32c0,0-17.3-20.24-15.12-34.12s4.29-46.59,89.94-53.88C431.11,74,475.35,40.32,500.53,46.68s49.88,7.76,49.64,43.76-26.11,40.94-26.11,40.94,11.52,12.24.94,33.88l4.23,32.24-15.29,5.88s-1.6-7.74-4.24-16.83v-.11l-.12-.29c-2.35-8-5.51-17-9.1-22.64l-2.07-5.15Z" transform="translate(-113.07 -43.38)"/><path class="cls-2" d="M453.24,283.78c13.58,1.81,25.34,6.4,25,17-18.92,24.71-37.82,31-54.63,31.12-20.64.16-43.16-8.41-57.17-23.35a102.94,102.94,0,0,1-16.92-25.23l2.26-7.28c27.73,3.82,55.95,24.1,55.95,24.1Z" transform="translate(-113.07 -43.38)"/><path class="cls-1" d="M498.41,158.36l2.07,5.15a16.9,16.9,0,0,0-3.48-4.13A265.6,265.6,0,0,1,452.75,168Z" transform="translate(-113.07 -43.38)"/><rect class="cls-3" x="295.34" y="219.03" width="35.29" height="6.47"/><path class="cls-1" d="M388,176.65A57.44,57.44,0,0,0,369.61,191l-.38-.54,5.12-8.78,11.84-5Z" transform="translate(-113.07 -43.38)"/><path class="cls-3" d="M401.58,541.2l2.14,2.8A3.43,3.43,0,0,1,401.58,541.2Z" transform="translate(-113.07 -43.38)"/><path class="cls-3" d="M423.32,533.82H419l-1.55-1.61C419.6,532.14,421.71,532.28,423.32,533.82Z" transform="translate(-113.07 -43.38)"/><path d="M443.7,268.88v.24a17.62,17.62,0,0,1-6.44,13.63h0c-9.16-.09-17.31.54-21.19.89h0a17.57,17.57,0,0,1-7.64-14.52v-.24Z" transform="translate(-113.07 -43.38)"/><path d="M384.41,201.94c4.09,0,7.41,6.8,7.41,15.18s-3.32,15.17-7.41,15.17S377,225.5,377,217.12,380.31,201.94,384.41,201.94Z" transform="translate(-113.07 -43.38)"/><path class="cls-2" d="M483.58,272.91l12.52-7c-3.74,9.67-6.91,18.7-11.47,25.7q-3.21,4.92-6.42,9.11c.37-10.55-11.39-15.14-25-17Z" transform="translate(-113.07 -43.38)"/><path class="cls-2" d="M407.7,300.09s-28.22-20.28-55.95-24.1l.19-.61s60.7,8.47,61.76,8.47l2.35-.21h0a17.6,17.6,0,0,0,21.19-.89h0a132.55,132.55,0,0,1,16,1Z" transform="translate(-113.07 -43.38)"/><path class="cls-4" d="M698.82,574V614.5H439.11l90.83-182.65a28.82,28.82,0,0,0,2.84-5.64l2.57-.95S696.64,499.62,698.82,574Z" transform="translate(-113.07 -43.38)"/><path class="cls-1" d="M369.23,190.43l.38.54a46,46,0,0,0-3.24,4.36Z" transform="translate(-113.07 -43.38)"/><path class="cls-3" d="M531.58,416.56s3.75,2.49,1.2,9.65L501,437.92c1.84-13,3.46-25.24,3.46-25.24l-26.12-27.53s8.47-7.77,19.41,3.88Z" transform="translate(-113.07 -43.38)"/><path class="cls-1" d="M402.76,169.65l7-.13A76.41,76.41,0,0,0,388,176.65h-1.76Z" transform="translate(-113.07 -43.38)"/><path class="cls-1" d="M369.61,191A57.44,57.44,0,0,1,388,176.65h20.57a8.94,8.94,0,0,1,0,17.88H376.74a9,9,0,0,1-7.13-3.56Z" transform="translate(-113.07 -43.38)"/><path class="cls-4" d="M401.58,541.2l-5.65-7.38h5.2a3.16,3.16,0,0,0-.51,4.73c.41.39.79.8,1.17,1.2A2.55,2.55,0,0,0,401.58,541.2Z" transform="translate(-113.07 -43.38)"/><path class="cls-3" d="M417.46,532.21l1.55,1.61H401.13a2.22,2.22,0,0,1,.82-.28,109.14,109.14,0,0,1,13.14-1.22C415.87,532.3,416.67,532.24,417.46,532.21Z" transform="translate(-113.07 -43.38)"/><path class="cls-5" d="M306.46,416.92l-8-8.36L173,455.38s-58.36,41.53-57.42,159.12h320" transform="translate(-113.07 -43.38)"/><line class="cls-5" x1="322.51" y1="498.64" x2="322.51" y2="490.44"/><path class="cls-5" d="M532.78,426.21l2.57-.95S696.64,499.62,698.82,574V614.5H435.58v-67" transform="translate(-113.07 -43.38)"/><path class="cls-5" d="M439.11,614.5l90.83-182.65a28.82,28.82,0,0,0,2.84-5.64c2.55-7.16-1.2-9.65-1.2-9.65L497.7,389c-10.94-11.65-19.41-3.88-19.41-3.88l8.1,15-22.7,51.48-3.16,7.17" transform="translate(-113.07 -43.38)"/><path class="cls-5" d="M327.65,444.61l-2.13-2.78-19.06-24.91-6.4-8.36,34.58-23.77c11.3-9.64,19.06,0,19.06,0l-2.82,7.06.57.59c3.37,3.51,21.19,22.31,39.58,45.38" transform="translate(-113.07 -43.38)"/><line class="cls-5" x1="288.51" y1="497.82" x2="282.86" y2="490.44"/><line class="cls-5" x1="318.99" y1="537.65" x2="290.65" y2="500.62"/><path class="cls-5" d="M349.49,283.27l-.73,2.35s16.24,64.59,4.94,99.17c-.88,2.68-1.62,5.23-2.25,7.65" transform="translate(-113.07 -43.38)"/><path class="cls-5" d="M478.29,385.15s-10.06-50.12-.88-79.94a17.53,17.53,0,0,0,.8-4.48" transform="translate(-113.07 -43.38)"/><path class="cls-5" d="M341.35,262A110.73,110.73,0,0,0,346,275.45c1,2.42,2.15,5.06,3.5,7.82a102.94,102.94,0,0,0,16.92,25.23c14,14.94,36.53,23.51,57.17,23.35,16.81-.13,35.71-6.41,54.63-31.12q3.21-4.19,6.42-9.11c4.56-7,7.73-16,11.47-25.7,1.66-4.29,3.43-8.71,5.48-13.13" transform="translate(-113.07 -43.38)"/><path class="cls-5" d="M328.83,201.13a20.86,20.86,0,0,0-10.42-2c-13.77,1.06-24,13.06-24.35,32.82s19.76,43.06,49.76,43.41c.72,0,1.45,0,2.17.07" transform="translate(-113.07 -43.38)"/><line class="cls-5" x1="253.29" y1="151.98" x2="247.15" y2="166.25"/><polyline class="cls-5" points="273.12 133.27 261.28 138.27 256.16 147.05 253.3 151.95"/><polyline class="cls-5" points="339.68 124.59 335.57 125.45 296.71 126.14"/><line class="cls-5" x1="396.51" y1="142.77" x2="387.41" y2="120.13"/><path class="cls-5" d="M496.1,265.92l2.66-1.48s48.71-12.7,47.3-46.59-32.48-15.17-36.36-8.11V186.55" transform="translate(-113.07 -43.38)"/><path class="cls-5" d="M328.83,201.13a28.93,28.93,0,0,0-8.77-3.63s-9.89-15.29-2.12-32c0,0-17.3-20.24-15.12-34.12s4.29-46.59,89.94-53.88C431.11,74,475.35,40.32,500.53,46.68s49.88,7.76,49.64,43.76-26.11,40.94-26.11,40.94,11.52,12.24.94,33.88l4.23,32.24-15.29,5.88s-1.6-7.74-4.24-16.83l-.12-.4c-2.35-8-5.51-17-9.1-22.64a16.9,16.9,0,0,0-3.48-4.13A265.6,265.6,0,0,1,452.75,168a146.72,146.72,0,0,1-24.22.59,80,80,0,0,0-18.75,1A76.41,76.41,0,0,0,388,176.65,57.44,57.44,0,0,0,369.61,191a46,46,0,0,0-3.24,4.36s0,0,0,0a44.84,44.84,0,0,0-6.14,14.27,46.4,46.4,0,0,0-1.11,6.93L341.35,213a44.32,44.32,0,0,0-12.51-11.89" transform="translate(-113.07 -43.38)"/><path class="cls-5" d="M222.41,613.82c1.23-13.47,17.65-105.53,17.65-105.53,2.29-17.53,17.6-36,32.64-45.53s30.44-17.82,49.77-18.17c.86,0,1.7,0,2.53,0s1.79,0,2.65,0c2.05.06,4,.18,5.81.35,28.35,2.65,31.2,17.92,31.36,20.45.18,2.83-4.76,6.88-4.76,6.88a19,19,0,0,1,1.83,2.21,9.48,9.48,0,0,1,2.05,5c0,2.13-2.43,5.12-4.2,7-1,1.08-1.8,1.81-1.8,1.81s3.88.53,4.94,6.89-6.53,10.23-6.53,10.23c3,1.77,2.29,6.71,2.29,6.71.08,8.94-15.49,14.94-32.45,18.81a326.13,326.13,0,0,1-42.37,6.25" transform="translate(-113.07 -43.38)"/><path class="cls-5" d="M356.35,505.47s-17.9,2.29-31.35,3.71c-6.07.64-11.22,1.11-13.42,1.11" transform="translate(-113.07 -43.38)"/><path class="cls-5" d="M358.17,471.47a93.13,93.13,0,0,0-11.92-2.56A117.34,117.34,0,0,0,325,467.56a88,88,0,0,0-27.53,5.09" transform="translate(-113.07 -43.38)"/><path class="cls-5" d="M325,444.57v-.16a6.71,6.71,0,0,1,.52-2.58,6.52,6.52,0,0,1,2.25-2.78,6.44,6.44,0,0,1,3.81-1.23H453.94a6.59,6.59,0,0,1,6.59,6.59v82.83a6.59,6.59,0,0,1-6.59,6.58H423.32" transform="translate(-113.07 -43.38)"/><path class="cls-5" d="M401.13,533.82H331.58a6.52,6.52,0,0,1-5.39-2.83" transform="translate(-113.07 -43.38)"/><path class="cls-5" d="M356.35,488.41s-17.2-.09-31.35.49c-8.26.34-15.48.91-17.65,1.86" transform="translate(-113.07 -43.38)"/><path class="cls-5" d="M295.47,612s11.76-57.82,11.88-76.18" transform="translate(-113.07 -43.38)"/><path class="cls-6" d="M369.61,191a9,9,0,0,0,7.13,3.56h31.78a8.94,8.94,0,0,0,0-17.88H376.74a8.93,8.93,0,0,0-7.51,13.78Z" transform="translate(-113.07 -43.38)"/><path class="cls-6" d="M475.37,176.65H443.59a8.94,8.94,0,0,0,0,17.88h31.78a8.94,8.94,0,0,0,0-17.88Z" transform="translate(-113.07 -43.38)"/><path class="cls-7" d="M443.7,268.88v.24a17.62,17.62,0,0,1-6.44,13.63h0a17.6,17.6,0,0,1-21.19.89h0a17.57,17.57,0,0,1-7.64-14.52v-.24" transform="translate(-113.07 -43.38)"/><path class="cls-8" d="M426.06,213.31s11.29,36.71,0,35.65" transform="translate(-113.07 -43.38)"/><path class="cls-8" d="M311.7,225.94s8.12,13.77,17.65,19.06" transform="translate(-113.07 -43.38)"/><path class="cls-8" d="M530.17,215.71s-4.94,15.53-17.29,19.76" transform="translate(-113.07 -43.38)"/><path class="cls-2" d="M363.36,467.65c4-10.77-10.32-16.85-18.25-19.35-22.42-7.05-46.07,1.05-65.87,11.77-22.65,12.27-40.13,31.4-40.61,58.37a5,5,0,0,0,1.63,4.07c-3.25,11.43-7.42,22.63-7,34.74a5,5,0,0,0,.49,2L222,608.46c-1.34,5.62,5.48,8.61,8.92,5.76a5.75,5.75,0,0,0,3.54,1.8,175.41,175.41,0,0,0,31.07,1.39c5.2-.24,10.39-.74,15.55-1.44,4.12-.55,8.58-.61,11.06-4.44s3.1-9.07,4.26-13.34c1.41-5.24,2.77-10.51,3.93-15.82a163,163,0,0,0,4-31.72,5.72,5.72,0,0,0-.33-2.1c.44-2.19.9-4.37,1.41-6.55s.84-6.89,2.26-8.55c1.69-2,5.13-1.41,7.48-1.62a83.21,83.21,0,0,0,32.09-9.59c3.75-2,8.15-4.33,9.54-8.69.85-2.65.25-5.29-.53-7.84a11.11,11.11,0,0,0-.44-1.56c.56-.24,1.11-.49,1.65-.77,3.86-2.59,3.94-7.52,2.75-11.56-.49-1.66-1.49-4.41-2.92-5.76l.74-.63c2.69-2.26,4.7-5.06,4.26-8.75a6.65,6.65,0,0,0-.8-2.36,20.46,20.46,0,0,0,.32-3.9A11,11,0,0,0,363.36,467.65Z" transform="translate(-113.07 -43.38)"/><path class="cls-4" d="M303.63,537.31a18.46,18.46,0,0,0-6.5.26c-2.24.33-5.37,1.8-7.36.41a2.45,2.45,0,0,0-3.06,0c-2.64-1.83-6.2,2.06-3.72,4.7A17,17,0,0,0,294.48,548c3.54.2,9.4-.48,11.73-3.57A4.44,4.44,0,0,0,303.63,537.31Z" transform="translate(-113.07 -43.38)"/><path class="cls-4" d="M356.31,512.26a6.8,6.8,0,0,0,.38-2.73,3.07,3.07,0,0,0-3-3,3,3,0,0,0-3,3c.09,1.3-.92,2.11-1.91,2.8a29.27,29.27,0,0,0-4,3,3,3,0,0,0,1.32,5c3.59,1.34,6.92-1.48,9.73-3.33A3.09,3.09,0,0,0,356.31,512.26Z" transform="translate(-113.07 -43.38)"/><path class="cls-4" d="M316.53,505.94c-1.78-.07-3.42-1.06-5.17-1.36s-4-.26-5.57,1c-4.11,3.26,1.35,7.51,4.33,8.71a3,3,0,0,0,3.69-2.09,3,3,0,0,0,.11-.63,13.15,13.15,0,0,0,2.61.4C320.39,512.08,320.38,506.08,316.53,505.94Z" transform="translate(-113.07 -43.38)"/><path class="cls-4" d="M317.41,484c-3.8-.32-9.26-1.79-12.66.58-4.49,3.14,0,7.69,3.69,8.63a3,3,0,0,0,3.67-3.66l5.3.45C321.25,490.28,321.23,484.28,317.41,484Z" transform="translate(-113.07 -43.38)"/><path class="cls-4" d="M306.24,467.56c-.2-1.32-1.45-2.79-2.95-2.6l-.79.11h0c-1.26.16-2.51.36-3.74.64s-3.05.58-4.08,1.6c-3,3,.93,6.49,3.92,6.94a3.09,3.09,0,0,0,3.69-2.09,2.59,2.59,0,0,0,.08-.79c.58-.16,1.17-.32,1.75-.53A3,3,0,0,0,306.24,467.56Z" transform="translate(-113.07 -43.38)"/><path class="cls-4" d="M327.39,242.6c-7.29-2.89-11.05-10.35-14.45-16.91-1.78-3.43-7-.4-5.18,3,4.27,8.24,9,16.1,18,19.67C329.38,249.81,330.94,244,327.39,242.6Z" transform="translate(-113.07 -43.38)"/><path class="cls-4" d="M528.52,218c.13,4.25-4.39,6.8-6.77,9.83a35.06,35.06,0,0,1-3,4,20.86,20.86,0,0,1-5.82,3.33c-3.51,1.59-.46,6.77,3,5.18a25.48,25.48,0,0,0,6.56-3.87c2-1.81,3.24-4.29,5.1-6.28,3.45-3.69,7.1-6.72,6.93-12.22C534.4,214.16,528.4,214.14,528.52,218Z" transform="translate(-113.07 -43.38)"/><path class="cls-4" d="M357.94,369.59s102.59,20.7,117.65-59.77L473,307s-17.63,20.77-38.34,23.8-54.13-2.86-73.66-28.51-9.41-7.29-9.41-7.29Z" transform="translate(-113.07 -43.38)"/><path class="cls-9" d="M542.53,66.06s-20.43,50.12-58.22,42.35c0,0-8.49,32.83-40.6,32.12s-72,36.12-72,36.12h20.92s17.55-9.89,51.08-8S497,159.38,497,159.38s18.81-12.5,14.35-27.67c0,0,32.77,2.47,35.77-21.89S552.06,76.47,542.53,66.06Z" transform="translate(-113.07 -43.38)"/><path class="cls-9" d="M524.76,137.35s-7,19.53-21.64,26.83l9.76,37.76,14.94-6L525.24,167l4.94-25.18Z" transform="translate(-113.07 -43.38)"/><rect class="cls-10" x="248.93" y="432.79" width="36.35" height="8.47" rx="4.24"/><rect class="cls-10" x="247.69" y="447.44" width="19.41" height="8.47" rx="4.24"/><rect class="cls-10" x="270.1" y="447.44" width="23.12" height="8.47" rx="4.24"/><rect class="cls-10" x="245.84" y="462.09" width="46.15" height="8.47" rx="4.24"/><rect class="cls-10" x="248.93" y="412.32" width="64.24" height="8.47" rx="4.24"/><rect class="cls-11" x="303.1" y="428.03" width="32.65" height="35.12"/><rect class="cls-10" x="304.63" y="466.32" width="28.94" height="3.91" rx="1.96"/></g><g id="Layer_2_copy" data-name="Layer 2 copy"><path class="cls-5" d="M506.88,393.35" transform="translate(-113.07 -43.38)"/><path class="cls-5" d="M460.53,458.8l3.16-7.17,22.7-51.48-8.1-15s-10.06-50.12-.88-79.94a17.53,17.53,0,0,0,.8-4.48c-18.92,24.71-37.82,31-54.63,31.12-20.64.16-43.16-8.41-57.17-23.35a102.94,102.94,0,0,1-16.92-25.23l-.73,2.35s16.24,64.59,4.94,99.17c-.88,2.68-1.62,5.23-2.25,7.65,3.37,3.51,21.19,22.31,39.58,45.38h62.91a6.59,6.59,0,0,1,6.59,6.59V458.8Z" transform="translate(-113.07 -43.38)"/><path class="cls-5" d="M698.82,574V614.5H439.11l90.83-182.65a28.82,28.82,0,0,0,2.84-5.64l2.57-.95S696.64,499.62,698.82,574Z" transform="translate(-113.07 -43.38)"/><path class="cls-5" d="M460.53,458.8v68.44a6.59,6.59,0,0,1-6.59,6.58H435.58V614.5h3.53l90.83-182.65a28.82,28.82,0,0,0,2.84-5.64c2.55-7.16-1.2-9.65-1.2-9.65L497.7,389c-10.94-11.65-19.41-3.88-19.41-3.88l8.1,15-22.7,51.48Z" transform="translate(-113.07 -43.38)"/><path class="cls-5" d="M509.7,186.55c-3.1-10.63-7.63-23.11-12.7-27.17,0,0-37.65,11.3-68.47,9.18s-66.59,14.59-69.42,48L341.35,213a44.32,44.32,0,0,0-12.51-11.89h0a28.93,28.93,0,0,0-8.77-3.63s-9.89-15.29-2.12-32c0,0-17.3-20.24-15.12-34.12s4.29-46.59,89.94-53.88C431.11,74,475.35,40.32,500.53,46.68s49.88,7.76,49.64,43.76-26.11,40.94-26.11,40.94,11.52,12.24.94,33.88l4.23,32.24-15.29,5.88S512.34,195.64,509.7,186.55Z" transform="translate(-113.07 -43.38)"/><path class="cls-5" d="M325,444.57c.9,0,1.79,0,2.65,0,2.05.06,4,.18,5.81.35,28.35,2.65,31.2,17.92,31.36,20.45.18,2.83-4.76,6.88-4.76,6.88a19,19,0,0,1,1.83,2.21,9.48,9.48,0,0,1,2.05,5c0,2.13-2.43,5.12-4.2,7-1,1.08-1.8,1.81-1.8,1.81s3.88.53,4.94,6.89-6.53,10.23-6.53,10.23c3,1.77,2.29,6.71,2.29,6.71.08,8.94-15.49,14.94-32.45,18.81a6.52,6.52,0,0,0,5.39,2.83h104V614.5h-320C114.64,496.91,173,455.38,173,455.38l125.41-46.82,8,8.36,19.06,24.91a6.71,6.71,0,0,0-.52,2.58Z" transform="translate(-113.07 -43.38)"/><path class="cls-5" d="M327.77,439.05a6.52,6.52,0,0,0-2.25,2.78l-19.06-24.91-6.4-8.36,34.58-23.77c11.3-9.64,19.06,0,19.06,0l-2.82,7.06.57.59c3.37,3.51,21.19,22.31,39.58,45.38H331.58A6.44,6.44,0,0,0,327.77,439.05Z" transform="translate(-113.07 -43.38)"/><path class="cls-5" d="M325.52,441.83l2.13,2.78c-.86,0-1.75,0-2.65,0v-.16A6.71,6.71,0,0,1,325.52,441.83Z" transform="translate(-113.07 -43.38)"/><path class="cls-5" d="M327.65,444.61c2.05.06,4,.18,5.81.35,28.35,2.65,31.2,17.92,31.36,20.45.18,2.83-4.76,6.88-4.76,6.88a19,19,0,0,1,1.83,2.21,9.48,9.48,0,0,1,2.05,5c0,2.13-2.43,5.12-4.2,7-1,1.08-1.8,1.81-1.8,1.81s3.88.53,4.94,6.89-6.53,10.23-6.53,10.23c3,1.77,2.29,6.71,2.29,6.71.08,8.94-15.49,14.94-32.45,18.81a6.52,6.52,0,0,0,5.39,2.83H453.94a6.59,6.59,0,0,0,6.59-6.58V444.41a6.59,6.59,0,0,0-6.59-6.59H331.58a6.44,6.44,0,0,0-3.81,1.23,6.52,6.52,0,0,0-2.25,2.78Z" transform="translate(-113.07 -43.38)"/><path class="cls-5" d="M349.49,283.27c-1.35-2.76-2.51-5.4-3.5-7.82-.72,0-1.45-.06-2.17-.07-30-.35-50.12-23.64-49.76-43.41s10.58-31.76,24.35-32.82a20.86,20.86,0,0,1,10.42,2h0A44.32,44.32,0,0,1,341.35,213l17.76,3.53c2.83-33.41,38.59-50.12,69.42-48S497,159.38,497,159.38c5.07,4.06,9.6,16.54,12.7,27.17v23.19c3.88-7.06,34.94-25.77,36.36,8.11s-47.3,46.59-47.3,46.59l-2.66,1.48c-3.74,9.67-6.91,18.7-11.47,25.7q-3.21,4.92-6.42,9.11c-18.92,24.71-37.82,31-54.63,31.12-20.64.16-43.16-8.41-57.17-23.35A102.94,102.94,0,0,1,349.49,283.27Z" transform="translate(-113.07 -43.38)"/><path class="cls-5" d="M350.88,391.85l2.82-7.06c-.88,2.68-1.62,5.23-2.25,7.65Z" transform="translate(-113.07 -43.38)"/><path class="cls-5" d="M496.1,265.92c1.66-4.29,3.43-8.71,5.48-13.13" transform="translate(-113.07 -43.38)"/><line class="cls-5" x1="282.86" y1="490.44" x2="318.99" y2="537.65"/><path class="cls-5" d="M346.25,468.91a93.13,93.13,0,0,1,11.92,2.56" transform="translate(-113.07 -43.38)"/><path class="cls-5" d="M341.35,262A110.73,110.73,0,0,0,346,275.45" transform="translate(-113.07 -43.38)"/><path class="cls-5" d="M346.25,468.91A117.34,117.34,0,0,0,325,467.56" transform="translate(-113.07 -43.38)"/><path class="cls-5" d="M356.35,488.41s-17.2-.09-31.35.49" transform="translate(-113.07 -43.38)"/><path class="cls-5" d="M356.35,505.47s-17.9,2.29-31.35,3.71" transform="translate(-113.07 -43.38)"/><path class="cls-5" d="M311.58,510.29c2.2,0,7.35-.47,13.42-1.11" transform="translate(-113.07 -43.38)"/><path class="cls-5" d="M307.35,490.76c2.17-.95,9.39-1.52,17.65-1.86" transform="translate(-113.07 -43.38)"/><path class="cls-5" d="M297.47,472.65A88,88,0,0,1,325,467.56" transform="translate(-113.07 -43.38)"/><path class="cls-5" d="M326.19,531a326.13,326.13,0,0,1-42.37,6.25" transform="translate(-113.07 -43.38)"/><path class="cls-5" d="M325,444.57c-.83,0-1.67,0-2.53,0-19.33.35-34.72,8.6-49.77,18.17s-30.35,28-32.64,45.53c0,0-16.42,92.06-17.65,105.53" transform="translate(-113.07 -43.38)"/><path class="cls-5" d="M295.47,612s11.77-57.82,11.88-76.18" transform="translate(-113.07 -43.38)"/><rect class="cls-12" x="254.73" y="133.26" width="49.66" height="17.88" rx="8.94"/><rect class="cls-12" x="321.58" y="133.26" width="49.66" height="17.88" rx="8.94"/><ellipse cx="271.34" cy="173.74" rx="7.41" ry="15.18"/><ellipse cx="352.34" cy="173.74" rx="7.41" ry="15.18"/><path class="cls-13" d="M295.34,219h35.29a0,0,0,0,1,0,0v6.71A17.65,17.65,0,0,1,313,243.38h0a17.65,17.65,0,0,1-17.65-17.65V219A0,0,0,0,1,295.34,219Z"/><rect class="cls-3" x="295.34" y="219.03" width="35.29" height="6.47"/><path class="cls-8" d="M426.06,213.31s11.29,36.71,0,35.65" transform="translate(-113.07 -43.38)"/><path class="cls-8" d="M311.71,225.94s8.11,13.77,17.64,19.06" transform="translate(-113.07 -43.38)"/><path class="cls-8" d="M530.18,215.71s-4.94,15.53-17.3,19.76" transform="translate(-113.07 -43.38)"/><path class="cls-5" d="M525.23,130.61s-11.52,4.15-26.82.74" transform="translate(-113.07 -43.38)"/><path class="cls-5" d="M498.41,158.36s7.71-2.93,8.21-8.09" transform="translate(-113.07 -43.38)"/></g></svg>